<svg width="32" height="32" xmlns="http://www.w3.org/2000/svg">

 <title/>
 <g>
  <title>background</title>
  <rect fill="none" id="canvas_background" height="402" width="582" y="-1" x="-1"/>
 </g>
 <g>
  <title>Layer 1</title>
  <path fill="#e24f55" id="svg_1" d="m27,15l-6,0a1,1 0 0 1 -1,-1l0,-3a4,4 0 0 1 8,0l0,3a1,1 0 0 1 -1,1zm-5,-2l4,0l0,-2a2,2 0 0 0 -4,0l0,2z" class="cls-1"/>
  <path fill="#f7adaf" id="svg_2" d="m21,22.956897a1,1 0 0 1 -1,-1l0,-5a1,1 0 0 0 -1,-1l-14,0a3,3 0 0 0 -3,3l0,3a3,3 0 0 0 3,3l16,0a1,1 0 0 0 0,-2z" class="cls-2"/>
  <path fill="#e24f55" id="svg_3" d="m7.85,19.15a0.48,0.48 0 0 0 -0.7,0l-0.65,0.64l-0.65,-0.64a0.49,0.49 0 0 0 -0.7,0.7l0.64,0.65l-0.64,0.65a0.49,0.49 0 0 0 0.7,0.7l0.65,-0.64l0.65,0.64a0.49,0.49 0 1 0 0.7,-0.7l-0.64,-0.65l0.64,-0.65a0.48,0.48 0 0 0 0,-0.7z" class="cls-3"/>
  <path fill="#e24f55" id="svg_4" d="m11.85,19.15a0.48,0.48 0 0 0 -0.7,0l-0.65,0.64l-0.65,-0.64a0.49,0.49 0 0 0 -0.7,0.7l0.64,0.65l-0.64,0.65a0.49,0.49 0 0 0 0.7,0.7l0.65,-0.64l0.65,0.64a0.49,0.49 0 1 0 0.7,-0.7l-0.64,-0.65l0.64,-0.65a0.48,0.48 0 0 0 0,-0.7z" class="cls-3"/>
  <path fill="#e24f55" id="svg_5" d="m15.21,20.5l0.64,-0.65a0.49,0.49 0 0 0 -0.7,-0.7l-0.65,0.64l-0.65,-0.64a0.49,0.49 0 0 0 -0.7,0.7l0.64,0.65l-0.64,0.65a0.49,0.49 0 0 0 0.7,0.7l0.65,-0.64l0.65,0.64a0.49,0.49 0 1 0 0.7,-0.7l-0.64,-0.65z" class="cls-3"/>
  <rect fill="#e24f55" id="svg_6" y="13" x="18" width="12" ry="3" rx="3" height="12" class="cls-3"/>
  <path stroke="#f7adaf" fill="#e24f55" id="svg_7" d="m26,18a2,2 0 1 0 -3,1.72l0,1.28a1,1 0 0 0 2,0l0,-1.28a2,2 0 0 0 1,-1.72z" class="cls-1"/>
 </g>
</svg>